<?xml version="1.0" standalone="no"?>
<!DOCTYPE svg PUBLIC "-//W3C//DTD SVG 1.1//EN" "http://www.w3.org/Graphics/SVG/1.1/DTD/svg11.dtd">
<svg xmlns="http://www.w3.org/2000/svg" version="1.1" viewBox="0.00 0.00 750.00 500.00" width="750" height="500">
<path fill="#ffffff" d="   M 249.47 219.54   L 242.34 241.79   Q 242.16 242.35 242.70 242.58   Q 244.25 243.23 245.50 244.31   C 252.66 250.48 253.65 261.10 246.48 267.65   A 0.93 0.92 51.0 0 0 246.36 268.87   L 353.72 417.02   Q 354.09 417.55 354.67 417.25   C 355.65 416.73 356.73 416.14 357.81 415.82   C 372.66 411.57 384.75 427.06 376.70 440.16   C 371.20 449.09 358.76 450.43 351.44 443.31   C 346.60 438.60 344.60 430.64 348.01 424.36   Q 348.43 423.58 347.69 423.11   L 140.58 291.40   A 1.33 1.32 -53.9 0 0 138.84 291.68   Q 134.90 296.51 129.28 297.90   C 119.49 300.33 110.66 295.83 106.63 286.47   C 102.08 275.87 109.04 263.86 119.71 261.30   Q 120.24 261.17 120.20 260.63   Q 119.99 257.77 119.56 254.75   Q 113.16 210.26 106.80 165.77   Q 106.41 163.01 106.01 160.24   Q 100.42 120.99 94.83 80.66   A 0.63 0.63 0.0 0 0 94.22 80.11   Q 84.48 79.91 80.90 72.03   C 76.25 61.79 84.90 50.77 96.10 52.74   C 105.61 54.42 110.84 65.38 105.10 73.85   A 0.67 0.67 0.0 0 0 105.22 74.74   Q 160.25 121.84 215.28 168.87   Q 216.69 170.07 217.88 171.34   A 0.66 0.65 -35.5 0 0 218.66 171.47   Q 219.55 170.99 220.33 170.32   C 223.27 167.80 228.02 167.57 231.50 168.78   C 239.57 171.57 242.19 180.85 237.82 187.92   A 0.95 0.94 37.4 0 0 237.98 189.11   L 242.19 192.91   Q 242.63 193.31 243.11 192.95   C 250.14 187.52 260.38 188.63 265.04 196.53   Q 268.84 202.98 266.35 209.48   C 263.88 215.92 257.39 220.08 250.48 218.93   Q 249.71 218.80 249.47 219.54   Z   M 243.45 269.97   C 230.48 277.48 215.87 264.10 221.48 250.34   C 223.59 245.17 227.80 242.32 233.11 241.11   Q 236.44 240.35 239.22 241.46   Q 239.77 241.68 239.95 241.12   L 247.19 218.94   Q 247.35 218.45 246.93 218.15   C 244.96 216.73 242.54 215.57 241.12 213.58   Q 234.90 204.90 240.60 195.60   Q 240.92 195.09 240.48 194.67   L 236.21 190.60   A 0.69 0.68 48.5 0 0 235.33 190.54   C 223.83 198.88 209.45 186.71 216.61 173.99   A 0.74 0.73 -55.2 0 0 216.45 173.07   L 104.07 76.93   A 1.09 1.09 0.0 0 0 102.71 76.88   Q 100.48 78.56 97.59 79.51   Q 97.01 79.71 97.09 80.32   C 103.23 123.75 109.71 167.79 115.67 210.58   C 117.97 227.09 120.46 243.26 122.57 260.10   A 0.78 0.78 0.0 0 0 123.39 260.78   C 134.71 260.25 143.49 269.21 143.27 280.33   Q 143.19 284.86 140.98 288.16   A 0.51 0.51 0.0 0 0 141.13 288.88   L 349.11 421.16   A 0.79 0.78 -46.4 0 0 350.00 421.13   Q 350.94 420.44 351.70 419.28   Q 352.02 418.80 351.68 418.34   L 244.28 270.14   Q 243.94 269.68 243.45 269.97   Z"/>
<path fill="#ffffff" d="   M 339.90 225.73   C 334.39 226.59 332.57 231.37 332.59 236.50   Q 332.65 254.94 332.62 274.67   A 0.34 0.33 0.0 0 1 332.28 275.00   L 323.02 275.00   A 0.31 0.31 0.0 0 1 322.71 274.68   Q 322.83 258.55 322.66 239.21   Q 322.60 231.60 324.18 227.48   Q 327.19 219.68 335.04 216.81   Q 338.96 215.38 347.10 215.40   Q 384.93 215.50 421.68 215.46   Q 421.98 215.46 421.98 215.75   L 421.97 225.17   Q 421.97 225.35 421.79 225.35   Q 384.22 225.37 345.90 225.32   Q 342.56 225.32 339.90 225.73   Z"/>
<path fill="#ffffff" d="   M 446.82 246.19   C 444.26 247.38 441.94 250.07 441.91 253.12   Q 441.80 263.69 441.88 274.58   Q 441.89 275.00 441.47 275.00   L 432.48 275.00   Q 431.99 275.00 431.99 274.51   Q 432.02 265.18 431.93 254.66   C 431.87 246.77 434.89 241.05 442.04 237.72   Q 462.86 228.02 484.80 217.72   C 491.75 214.46 499.66 215.61 507.04 215.43   Q 513.76 215.27 517.81 216.46   Q 526.42 219.01 529.81 227.65   Q 531.39 231.66 531.29 241.24   Q 531.12 258.04 531.27 274.68   Q 531.28 275.00 530.96 275.00   L 521.54 274.99   Q 521.32 274.99 521.31 274.77   Q 521.21 256.98 521.36 236.72   C 521.41 230.32 518.71 225.55 511.75 225.43   Q 504.49 225.30 497.33 225.36   Q 491.74 225.41 487.01 227.60   Q 467.45 236.65 446.82 246.19   Z"/>
<path fill="#ffffff" d="   M 626.02 225.40   C 620.18 225.47 615.10 227.93 611.03 231.99   Q 594.14 248.82 577.88 265.18   C 570.84 272.27 562.83 275.27 552.74 275.04   Q 546.91 274.91 541.55 275.02   Q 541.24 275.03 541.24 274.72   L 541.26 265.31   Q 541.26 265.09 541.48 265.09   Q 548.47 265.10 555.13 265.08   Q 564.00 265.06 570.46 258.64   Q 586.89 242.31 603.63 225.41   C 610.60 218.38 618.61 215.16 628.73 215.43   Q 634.15 215.58 639.89 215.44   Q 640.46 215.43 640.47 216.00   L 640.48 224.95   Q 640.48 225.36 640.07 225.36   Q 633.01 225.32 626.02 225.40   Z"/>
</svg>